<?xml version="1.0" encoding="UTF-8"?>
<svg data-name="Ebene 1" viewBox="0 0 800 800" xmlns="http://www.w3.org/2000/svg">
 <defs>
  <clipPath id="d">
   <circle cx="400" cy="400" r="400" fill="none"/>
  </clipPath>
  <linearGradient id="c" x1="376.74" x2="158.73" y1="388.26" y2="170.26" gradientTransform="matrix(1 0 0 -1 0 800)" gradientUnits="userSpaceOnUse">
   <stop offset="0"/>
   <stop stop-opacity="0" offset="1"/>
  </linearGradient>
 </defs>
 <g clip-path="url(#d)">
  <circle cx="400" cy="400" r="400" fill="#1c8adb"/>
  <path d="m239.54 779.51 196.02-196.02a12.93 12.93 0 0 0 4.4794 -9.5748c5.3423-5.5232 6.14-11.002 3.0385-16.443 3.2461-4.7293 3.1881-9.1324 0-13.226 3.6262-6.0723 2.81-10.106 0-13.226 2.96-3.93 3.1979-8.8065 2.1746-14.121l5.6571-5.6691a27.12 27.12 0 0 0 7.0031 -10.862c4.8258-66.489 58.446-91.69 61.127-162.47 0-86.864-59.518-130.97-119.04-131.3a118.26 118.26 0 0 0 -73.335 25.653 113.32 113.32 0 0 0 -9.7075 8.6341l-298.27 298.27c36.484 100.36 110.92 180.02 220.85 240.35z" fill="url(#c)" opacity=".42" style="isolation:isolate"/>
  <path d="m400 221.6c27.2 0.1743 52.528 10.437 71.326 28.903 21.343 20.967 32.651 51.083 32.71 87.112-1.3 32.42-14.705 54.314-28.895 77.491-14.226 23.237-28.926 47.25-32.002 81.819a16.854 16.854 0 0 1 -6.2163 6.32l-8.7793 5.6447 2.2415 10.194a12.915 12.915 0 0 1 0.408 3.3116l-7.1383 9.4785 5.6153 6.2344-4.335 7.26 4.3878 5.6344-3.9351 5.7331 3.8558 6.7643-4.2076 4.35v4.9728c-2.4584 2.1232-11.501 5.5768-25.036 5.5768s-22.577-3.4536-25.036-5.5765v-4.9725l-4.2075-4.35 3.8559-6.7643-3.9351-5.7331 4.3881-5.6348-4.3352-7.26 5.6151-6.2346-7.1382-9.4783a12.919 12.919 0 0 1 0.408 -3.3117l2.2414-10.194-8.7789-5.6447a16.856 16.856 0 0 1 -6.2164 -6.32c-3.0755-34.57-17.776-58.582-32.002-81.819-14.19-23.177-27.595-45.072-28.895-77.492 0.0592-36.029 11.367-66.145 32.71-87.112 18.798-18.467 44.126-28.729 71.326-28.904m0-15c-59.518 0.3351-119.04 44.437-119.04 131.3 2.681 70.778 56.301 95.979 61.127 162.47 2.09 6.2686 6.6266 11.476 12.874 15.493-1.2571 5.7172-1.191 10.974 1.9606 15.159-2.81 3.12-3.6262 7.1539 0 13.226-3.1881 4.0938-3.2461 8.4969 0 13.226-3.1016 5.4411-2.3039 10.92 3.0384 16.444-1e-4 12.988 20.018 19.482 40.036 19.482s40.036-6.494 40.036-19.482c5.3423-5.5233 6.14-11.002 3.0385-16.444 3.2461-4.7293 3.1881-9.1324 0-13.226 3.6262-6.0724 2.81-10.107 0-13.226 3.1516-4.1848 3.2177-9.4422 1.9605-15.159 6.2476-4.017 10.785-9.2245 12.874-15.493 4.8258-66.488 58.446-91.69 61.126-162.47 0-86.864-59.518-130.97-119.04-131.3z" fill="#fff"/>
 </g>
 <path d="m361 511c18.669 14.504 66.835 11.171 79.165-0.9733" fill="none" stroke="#fff" stroke-linejoin="round" stroke-width="15px"/>
</svg>
