<?xml version="1.0" encoding="utf-8"?>
<!-- Generator: Adobe Illustrator 24.0.0, SVG Export Plug-In . SVG Version: 6.00 Build 0)  -->
<svg version="1.1" id="Ebene_1" xmlns="http://www.w3.org/2000/svg" xmlns:xlink="http://www.w3.org/1999/xlink" x="0px" y="0px"
	 viewBox="0 0 310.4 96.9" style="enable-background:new 0 0 310.4 96.9;" xml:space="preserve">
<style type="text/css">
	.st0{fill:#2E85C7;}
	.st1{fill:#18407A;}
	.st2{enable-background:new    ;}
	.st3{fill:#FFFFFF;}
	.st4{clip-path:url(#SVGID_2_);}
	.st5{fill:#1C8ADB;}
	.st6{opacity:0.42;fill:url(#SVGID_3_);enable-background:new    ;}
</style>
<path class="st0" d="M106.5,54.4h189.8c2.5,0,4.5,2,4.5,4.5v12.5c0,2.5-2,4.5-4.5,4.5H106.5c-2.5,0-4.5-2-4.5-4.5V58.8
	C102.1,56.4,104,54.4,106.5,54.4z"/>
<path class="st1" d="M113.2,50c-2.2,0.1-4.3-0.7-5.9-2.2c-1.5-1.7-2.3-3.8-2.1-6.1c-0.1-2.3,0.6-4.5,2-6.2c1.4-1.5,3.4-2.4,5.4-2.3
	c1.9-0.1,3.7,0.6,5.1,2c1.3,1.5,2,3.4,1.9,5.4v1.8h-10.8c0,1.3,0.4,2.6,1.3,3.6c0.9,0.9,2.1,1.3,3.4,1.3c0.9,0,1.8-0.1,2.7-0.3
	c0.9-0.2,1.8-0.5,2.7-0.9v2.8c-0.8,0.4-1.7,0.7-2.6,0.8C115.1,49.9,114.1,50,113.2,50z M112.5,35.8c-1-0.1-1.9,0.3-2.6,1
	c-0.7,0.8-1.1,1.9-1.2,3h7.3c0-1.1-0.3-2.2-1-3C114.4,36.1,113.5,35.8,112.5,35.8L112.5,35.8z"/>
<path class="st1" d="M130,50c-1.8,0.1-3.6-0.7-4.7-2.2c-1.2-1.8-1.8-4-1.7-6.2c-0.1-2.2,0.5-4.4,1.7-6.2c1.1-1.5,2.9-2.3,4.8-2.2
	c1.9-0.1,3.8,0.8,4.9,2.4h0.2c-0.1-0.9-0.2-1.8-0.3-2.8v-5.9h3.5v22.8h-2.7l-0.7-2.1h-0.2C133.8,49.2,131.9,50.1,130,50z
	 M130.9,47.2c1.2,0.1,2.3-0.4,3.1-1.2c0.7-1.1,1.1-2.5,1-3.9v-0.5c0.1-1.5-0.2-3-1-4.3c-0.8-0.9-1.9-1.4-3.1-1.3
	c-1.1,0-2.2,0.5-2.8,1.5c-0.7,1.3-1.1,2.7-1,4.2c-0.1,1.4,0.2,2.9,0.9,4.1C128.7,46.8,129.8,47.3,130.9,47.2L130.9,47.2z"/>
<path class="st1" d="M155.9,49.7l-0.5-2.1h-0.2c-0.5,0.8-1.2,1.4-2,1.8c-0.9,0.4-2,0.7-3,0.7c-1.6,0.1-3.2-0.4-4.4-1.5
	c-1.1-1.2-1.6-2.8-1.4-4.4V33.5h3.5v10c-0.1,1,0.2,2,0.8,2.8c0.6,0.7,1.5,1,2.4,0.9c1.2,0.1,2.4-0.4,3.2-1.3c0.8-1.3,1.1-2.8,1-4.3
	v-8.1h3.4v16.2H155.9z"/>
<path class="st1" d="M168.4,49.7l-6.1-16.2h3.6l3.3,9.4c0.5,1.2,0.8,2.5,1,3.8h0.1c0.2-1.3,0.6-2.6,1-3.8l3.3-9.4h3.7l-6.2,16.2
	L168.4,49.7z"/>
<path class="st1" d="M181.8,29.2c0-0.5,0.2-1,0.5-1.4c0.4-0.4,0.9-0.5,1.4-0.5c0.5,0,1,0.2,1.4,0.5c0.4,0.4,0.5,0.9,0.5,1.4
	c0,0.5-0.2,1-0.5,1.4c-0.4,0.3-0.9,0.5-1.4,0.5c-0.5,0-1-0.1-1.4-0.5C181.9,30.2,181.7,29.7,181.8,29.2z M185.4,49.7H182V33.5h3.4
	L185.4,49.7z"/>
<path class="st1" d="M197,50c-1.8,0.1-3.6-0.7-4.7-2.2c-1.2-1.8-1.8-4-1.7-6.2c-0.1-2.2,0.5-4.4,1.7-6.2c1.1-1.4,2.9-2.3,4.7-2.2
	c1.9-0.1,3.8,0.8,4.9,2.4h0.2c-0.1-0.9-0.2-1.8-0.3-2.8v-5.9h3.5v22.8h-2.7l-0.6-2.1h-0.2C200.8,49.2,198.9,50.1,197,50z
	 M197.9,47.2c1.2,0.1,2.3-0.4,3.1-1.2c0.7-1.1,1.1-2.5,1-3.9v-0.5c0.1-1.5-0.2-3-1-4.3c-0.8-0.9-1.9-1.4-3.1-1.3
	c-1.1,0-2.2,0.5-2.8,1.5c-0.7,1.3-1.1,2.7-1,4.2c-0.1,1.4,0.3,2.9,1,4.1C195.7,46.7,196.8,47.3,197.9,47.2L197.9,47.2z"/>
<path class="st1" d="M222.8,49.7l-0.5-2.1h-0.2c-0.5,0.8-1.2,1.4-2.1,1.8c-0.9,0.4-2,0.7-3,0.7c-1.6,0.1-3.2-0.4-4.4-1.5
	c-1.1-1.2-1.6-2.8-1.4-4.4V33.5h3.5v10c-0.1,1,0.2,2,0.8,2.8c0.6,0.7,1.5,1,2.4,0.9c1.2,0.1,2.4-0.4,3.2-1.3c0.8-1.3,1.1-2.8,1-4.3
	v-8.1h3.5v16.2H222.8z"/>
<path class="st1" d="M241.8,49.7l-0.7-2.3H241c-0.6,0.8-1.4,1.5-2.4,2c-1,0.4-2,0.6-3,0.5c-1.4,0.1-2.7-0.4-3.7-1.3
	c-0.9-1-1.4-2.3-1.3-3.7c-0.1-1.5,0.6-2.9,1.9-3.8c1.7-1,3.6-1.4,5.6-1.4l2.8-0.1V39c0.1-0.8-0.2-1.7-0.7-2.3
	c-0.6-0.6-1.4-0.8-2.2-0.8c-0.8,0-1.6,0.1-2.4,0.4c-0.8,0.2-1.5,0.5-2.2,0.9l-1.1-2.5c0.9-0.5,1.9-0.8,2.9-1c1-0.2,2-0.4,3-0.4
	c1.7-0.1,3.3,0.4,4.7,1.3c1.1,1.1,1.7,2.7,1.6,4.2v10.8H241.8z M236.7,47.4c1.1,0.1,2.2-0.3,3-1c0.8-0.8,1.2-1.8,1.1-2.9V42
	l-2.1,0.1c-1.2,0-2.4,0.2-3.5,0.8c-0.7,0.5-1.2,1.3-1.1,2.2c0,0.6,0.2,1.2,0.6,1.7C235.3,47.2,236,47.4,236.7,47.4L236.7,47.4z"/>
<path class="st1" d="M253.7,49.7h-3.4V26.9h3.4V49.7z"/>
<path class="st1" d="M259.3,47.9c0-0.6,0.2-1.2,0.5-1.6c0.4-0.4,1-0.6,1.6-0.6c0.6,0,1.2,0.2,1.6,0.6c0.4,0.4,0.6,1,0.6,1.6
	c0,0.6-0.2,1.2-0.6,1.7c-0.4,0.4-1,0.7-1.6,0.6c-0.6,0-1.2-0.2-1.6-0.6C259.5,49.1,259.3,48.5,259.3,47.9z"/>
<path class="st1" d="M279.4,49.7l-0.7-2.3h-0.1c-0.6,0.8-1.4,1.5-2.4,2c-1,0.4-2,0.6-3,0.5c-1.4,0.1-2.7-0.4-3.7-1.3
	c-0.9-1-1.4-2.3-1.3-3.7c-0.1-1.5,0.6-2.9,1.9-3.8c1.7-1,3.7-1.5,5.7-1.4l2.8-0.1V39c0.1-0.8-0.2-1.7-0.7-2.3
	c-0.6-0.6-1.4-0.8-2.3-0.8c-0.8,0-1.6,0.1-2.4,0.4c-0.7,0.2-1.5,0.5-2.2,0.9l-1.1-2.5c0.9-0.5,1.9-0.8,2.9-1c1-0.2,2-0.4,3-0.4
	c1.7-0.1,3.3,0.4,4.7,1.3c1.1,1.1,1.7,2.7,1.6,4.2v10.8H279.4z M274.3,47.4c1.1,0.1,2.2-0.3,3-1c0.8-0.8,1.2-1.8,1.1-2.9V42
	l-2.1,0.1c-1.2,0-2.4,0.2-3.5,0.8c-0.7,0.5-1.2,1.3-1.1,2.2c0,0.6,0.2,1.2,0.6,1.7C272.9,47.2,273.6,47.4,274.3,47.4z"/>
<path class="st1" d="M293.9,47.2c0.9,0,1.7-0.1,2.5-0.4v2.6c-0.5,0.2-1,0.3-1.5,0.4c-0.6,0.1-1.2,0.2-1.9,0.2
	c-3.3,0-4.9-1.7-4.9-5.2v-8.7H286v-1.5l2.4-1.3l1.2-3.4h2.1v3.6h4.6v2.6h-4.6v8.7c-0.1,0.7,0.2,1.3,0.6,1.8
	C292.7,47,293.3,47.3,293.9,47.2z"/>
<g class="st2">
	<path class="st3" d="M113.2,69.8c-0.7,0-1.3-0.3-1.7-0.8s-0.6-1.3-0.6-2.3c0-1,0.2-1.7,0.6-2.3c0.4-0.5,1-0.8,1.7-0.8
		c0.8,0,1.4,0.3,1.8,0.9h0.1c-0.1-0.4-0.1-0.8-0.1-1v-2.2h1.3v8.4h-1l-0.2-0.8H115C114.6,69.5,114,69.8,113.2,69.8z M113.6,68.7
		c0.5,0,0.9-0.1,1.1-0.4s0.4-0.8,0.4-1.4v-0.2c0-0.7-0.1-1.3-0.4-1.6s-0.6-0.5-1.1-0.5c-0.4,0-0.8,0.2-1,0.5
		c-0.2,0.4-0.4,0.9-0.4,1.5c0,0.7,0.1,1.2,0.3,1.5S113.1,68.7,113.6,68.7z"/>
	<path class="st3" d="M121.1,69.8c-0.9,0-1.6-0.3-2.2-0.8c-0.5-0.5-0.8-1.3-0.8-2.2c0-1,0.2-1.7,0.7-2.3c0.5-0.6,1.1-0.8,2-0.8
		c0.8,0,1.4,0.2,1.9,0.7c0.5,0.5,0.7,1.1,0.7,2V67h-4c0,0.6,0.2,1,0.5,1.3s0.7,0.5,1.2,0.5c0.4,0,0.7,0,1-0.1c0.3-0.1,0.6-0.2,1-0.3
		v1c-0.3,0.1-0.6,0.3-0.9,0.3C121.9,69.7,121.5,69.8,121.1,69.8z M120.9,64.6c-0.4,0-0.7,0.1-1,0.4c-0.2,0.3-0.4,0.6-0.4,1.1h2.7
		c0-0.5-0.1-0.9-0.4-1.1C121.6,64.7,121.3,64.6,120.9,64.6z"/>
	<path class="st3" d="M125.2,62.1c0-0.2,0.1-0.4,0.2-0.5c0.1-0.1,0.3-0.2,0.5-0.2c0.2,0,0.4,0.1,0.5,0.2c0.1,0.1,0.2,0.3,0.2,0.5
		c0,0.2-0.1,0.4-0.2,0.5c-0.1,0.1-0.3,0.2-0.5,0.2c-0.2,0-0.4-0.1-0.5-0.2C125.3,62.5,125.2,62.4,125.2,62.1z M126.6,69.7h-1.3v-5.9
		h1.3V69.7z"/>
	<path class="st3" d="M134,69.7h-1.3V66c0-0.5-0.1-0.8-0.3-1c-0.2-0.2-0.5-0.3-0.9-0.3c-0.5,0-0.9,0.2-1.2,0.5s-0.4,0.8-0.4,1.6v3
		h-1.3v-5.9h1l0.2,0.8h0.1c0.2-0.3,0.4-0.5,0.8-0.7c0.3-0.2,0.7-0.2,1.1-0.2c1.4,0,2.1,0.7,2.1,2.2V69.7z"/>
	<path class="st3" d="M138.8,69.8c-0.9,0-1.6-0.3-2.2-0.8c-0.5-0.5-0.8-1.3-0.8-2.2c0-1,0.2-1.7,0.7-2.3c0.5-0.6,1.1-0.8,2-0.8
		c0.8,0,1.4,0.2,1.9,0.7c0.5,0.5,0.7,1.1,0.7,2V67h-4c0,0.6,0.2,1,0.5,1.3s0.7,0.5,1.2,0.5c0.4,0,0.7,0,1-0.1c0.3-0.1,0.6-0.2,1-0.3
		v1c-0.3,0.1-0.6,0.3-0.9,0.3C139.6,69.7,139.2,69.8,138.8,69.8z M138.6,64.6c-0.4,0-0.7,0.1-1,0.4c-0.2,0.3-0.4,0.6-0.4,1.1h2.7
		c0-0.5-0.1-0.9-0.4-1.1C139.3,64.7,139,64.6,138.6,64.6z"/>
	<path class="st3" d="M149.3,69.8c-0.8,0-1.3-0.3-1.8-0.8h-0.1c0.1,0.5,0.1,0.8,0.1,0.9v2.4h-1.3v-8.6h1c0,0.1,0.1,0.4,0.2,0.8h0.1
		c0.4-0.6,1-0.9,1.8-0.9c0.7,0,1.3,0.3,1.7,0.8c0.4,0.5,0.6,1.3,0.6,2.3c0,1-0.2,1.7-0.6,2.3C150.6,69.5,150.1,69.8,149.3,69.8z
		 M149,64.6c-0.5,0-0.9,0.1-1.1,0.4c-0.2,0.3-0.3,0.8-0.3,1.4v0.2c0,0.7,0.1,1.2,0.3,1.6s0.6,0.5,1.1,0.5c0.4,0,0.8-0.2,1-0.5
		s0.4-0.9,0.4-1.5c0-0.7-0.1-1.2-0.4-1.5C149.8,64.8,149.5,64.6,149,64.6z"/>
	<path class="st3" d="M156.2,69.8c-0.9,0-1.6-0.3-2.2-0.8c-0.5-0.5-0.8-1.3-0.8-2.2c0-1,0.2-1.7,0.7-2.3c0.5-0.6,1.1-0.8,2-0.8
		c0.8,0,1.4,0.2,1.9,0.7c0.5,0.5,0.7,1.1,0.7,2V67h-4c0,0.6,0.2,1,0.5,1.3s0.7,0.5,1.2,0.5c0.4,0,0.7,0,1-0.1s0.6-0.2,1-0.3v1
		c-0.3,0.1-0.6,0.3-0.9,0.3C157,69.7,156.6,69.8,156.2,69.8z M156,64.6c-0.4,0-0.7,0.1-1,0.4c-0.2,0.3-0.4,0.6-0.4,1.1h2.7
		c0-0.5-0.1-0.9-0.4-1.1C156.7,64.7,156.4,64.6,156,64.6z"/>
	<path class="st3" d="M163.4,63.6c0.3,0,0.5,0,0.6,0.1l-0.1,1.2c-0.2,0-0.4-0.1-0.6-0.1c-0.5,0-0.9,0.2-1.2,0.5
		c-0.3,0.3-0.5,0.8-0.5,1.3v3.1h-1.3v-5.9h1l0.2,1h0.1c0.2-0.4,0.5-0.6,0.8-0.8C162.7,63.7,163,63.6,163.4,63.6z"/>
	<path class="st3" d="M169.6,68c0,0.6-0.2,1-0.6,1.3c-0.4,0.3-1,0.5-1.8,0.5c-0.8,0-1.4-0.1-1.9-0.4v-1.1c0.7,0.3,1.3,0.5,1.9,0.5
		c0.8,0,1.2-0.2,1.2-0.7c0-0.2,0-0.3-0.1-0.4c-0.1-0.1-0.2-0.2-0.4-0.3c-0.2-0.1-0.5-0.2-0.8-0.4c-0.7-0.3-1.1-0.5-1.4-0.8
		c-0.2-0.3-0.4-0.6-0.4-1c0-0.5,0.2-0.9,0.6-1.2c0.4-0.3,1-0.4,1.7-0.4c0.7,0,1.4,0.1,2,0.4l-0.4,1c-0.6-0.3-1.2-0.4-1.6-0.4
		c-0.7,0-1,0.2-1,0.6c0,0.2,0.1,0.3,0.3,0.5c0.2,0.1,0.6,0.3,1.1,0.5c0.5,0.2,0.8,0.4,1.1,0.5c0.2,0.2,0.4,0.3,0.5,0.5
		S169.6,67.7,169.6,68z"/>
	<path class="st3" d="M176.6,66.7c0,1-0.2,1.7-0.7,2.3c-0.5,0.5-1.2,0.8-2.1,0.8c-0.6,0-1-0.1-1.5-0.4c-0.4-0.3-0.8-0.6-1-1.1
		c-0.2-0.5-0.3-1-0.3-1.6c0-1,0.2-1.7,0.7-2.3c0.5-0.5,1.2-0.8,2.1-0.8c0.9,0,1.5,0.3,2,0.8C176.4,65,176.6,65.7,176.6,66.7z
		 M172.1,62.1c0-0.2,0.1-0.4,0.2-0.5c0.1-0.1,0.3-0.1,0.4-0.1c0.2,0,0.3,0.1,0.5,0.2c0.1,0.1,0.2,0.3,0.2,0.5c0,0.2-0.1,0.3-0.2,0.5
		c-0.1,0.1-0.3,0.2-0.5,0.2c-0.2,0-0.3-0.1-0.4-0.2C172.2,62.5,172.1,62.4,172.1,62.1z M172.3,66.7c0,1.4,0.5,2.1,1.5,2.1
		c1,0,1.5-0.7,1.5-2.1c0-1.4-0.5-2-1.5-2c-0.5,0-0.9,0.2-1.2,0.5C172.4,65.5,172.3,66,172.3,66.7z M174.2,62.1
		c0-0.2,0.1-0.4,0.2-0.5s0.3-0.1,0.4-0.1c0.2,0,0.3,0.1,0.5,0.2c0.1,0.1,0.2,0.3,0.2,0.5c0,0.2-0.1,0.3-0.2,0.5
		c-0.1,0.1-0.3,0.2-0.5,0.2c-0.2,0-0.3-0.1-0.4-0.2C174.3,62.5,174.2,62.4,174.2,62.1z"/>
	<path class="st3" d="M183.7,69.7h-1.3V66c0-0.5-0.1-0.8-0.3-1c-0.2-0.2-0.5-0.3-0.9-0.3c-0.5,0-0.9,0.2-1.2,0.5s-0.4,0.8-0.4,1.6v3
		h-1.3v-5.9h1l0.2,0.8h0.1c0.2-0.3,0.4-0.5,0.8-0.7c0.3-0.2,0.7-0.2,1.1-0.2c1.4,0,2.1,0.7,2.1,2.2V69.7z"/>
	<path class="st3" d="M187.2,69.7h-1.3v-8.4h1.3V69.7z"/>
	<path class="st3" d="M189.4,62.1c0-0.2,0.1-0.4,0.2-0.5c0.1-0.1,0.3-0.2,0.5-0.2c0.2,0,0.4,0.1,0.5,0.2c0.1,0.1,0.2,0.3,0.2,0.5
		c0,0.2-0.1,0.4-0.2,0.5c-0.1,0.1-0.3,0.2-0.5,0.2c-0.2,0-0.4-0.1-0.5-0.2C189.4,62.5,189.4,62.4,189.4,62.1z M190.7,69.7h-1.3v-5.9
		h1.3V69.7z"/>
	<path class="st3" d="M195.3,69.8c-0.9,0-1.6-0.3-2-0.8c-0.5-0.5-0.7-1.3-0.7-2.3c0-1,0.2-1.8,0.7-2.3c0.5-0.5,1.2-0.8,2.1-0.8
		c0.6,0,1.2,0.1,1.7,0.3l-0.4,1c-0.5-0.2-1-0.3-1.3-0.3c-1,0-1.5,0.7-1.5,2c0,0.7,0.1,1.2,0.4,1.5s0.6,0.5,1.1,0.5
		c0.6,0,1.1-0.1,1.6-0.4v1.1c-0.2,0.1-0.5,0.2-0.7,0.3S195.7,69.8,195.3,69.8z"/>
	<path class="st3" d="M204.1,69.7h-1.3V66c0-0.5-0.1-0.8-0.3-1c-0.2-0.2-0.5-0.3-0.9-0.3c-0.5,0-0.9,0.2-1.2,0.5
		c-0.2,0.3-0.4,0.8-0.4,1.6v2.9h-1.3v-8.4h1.3v2.1c0,0.3,0,0.7-0.1,1.1h0.1c0.2-0.3,0.4-0.5,0.7-0.7c0.3-0.2,0.7-0.2,1.1-0.2
		c1.4,0,2.2,0.7,2.2,2.2V69.7z"/>
	<path class="st3" d="M208.9,69.8c-0.9,0-1.6-0.3-2.2-0.8c-0.5-0.5-0.8-1.3-0.8-2.2c0-1,0.2-1.7,0.7-2.3c0.5-0.6,1.1-0.8,2-0.8
		c0.8,0,1.4,0.2,1.9,0.7c0.5,0.5,0.7,1.1,0.7,2V67h-4c0,0.6,0.2,1,0.5,1.3c0.3,0.3,0.7,0.5,1.2,0.5c0.4,0,0.7,0,1-0.1
		c0.3-0.1,0.6-0.2,1-0.3v1c-0.3,0.1-0.6,0.3-0.9,0.3C209.6,69.7,209.3,69.8,208.9,69.8z M208.6,64.6c-0.4,0-0.7,0.1-1,0.4
		c-0.2,0.3-0.4,0.6-0.4,1.1h2.7c0-0.5-0.1-0.9-0.4-1.1C209.3,64.7,209,64.6,208.6,64.6z"/>
	<path class="st3" d="M216.5,69.7v-7.9h1.3v6.8h3.3v1.1H216.5z"/>
	<path class="st3" d="M225.3,69.8c-0.9,0-1.6-0.3-2.2-0.8c-0.5-0.5-0.8-1.3-0.8-2.2c0-1,0.2-1.7,0.7-2.3c0.5-0.6,1.1-0.8,2-0.8
		c0.8,0,1.4,0.2,1.9,0.7c0.5,0.5,0.7,1.1,0.7,2V67h-4c0,0.6,0.2,1,0.5,1.3c0.3,0.3,0.7,0.5,1.2,0.5c0.4,0,0.7,0,1-0.1s0.6-0.2,1-0.3
		v1c-0.3,0.1-0.6,0.3-0.9,0.3C226.1,69.7,225.7,69.8,225.3,69.8z M225.1,64.6c-0.4,0-0.7,0.1-1,0.4c-0.2,0.3-0.4,0.6-0.4,1.1h2.7
		c0-0.5-0.1-0.9-0.4-1.1C225.8,64.7,225.5,64.6,225.1,64.6z"/>
	<path class="st3" d="M232.5,63.6c0.3,0,0.5,0,0.6,0.1l-0.1,1.2c-0.2,0-0.4-0.1-0.6-0.1c-0.5,0-0.9,0.2-1.2,0.5
		c-0.3,0.3-0.5,0.8-0.5,1.3v3.1h-1.3v-5.9h1l0.2,1h0.1c0.2-0.4,0.5-0.6,0.8-0.8C231.8,63.7,232.2,63.6,232.5,63.6z"/>
	<path class="st3" d="M239.9,69.7h-1.3V66c0-0.5-0.1-0.8-0.3-1c-0.2-0.2-0.5-0.3-0.9-0.3c-0.5,0-0.9,0.2-1.2,0.5S236,66,236,66.7v3
		h-1.3v-5.9h1l0.2,0.8h0.1c0.2-0.3,0.4-0.5,0.8-0.7c0.3-0.2,0.7-0.2,1.1-0.2c1.4,0,2.1,0.7,2.1,2.2V69.7z"/>
	<path class="st3" d="M245.1,69.8c-0.8,0-1.3-0.3-1.8-0.8h-0.1c0.1,0.5,0.1,0.8,0.1,0.9v2.4h-1.3v-8.6h1c0,0.1,0.1,0.4,0.2,0.8h0.1
		c0.4-0.6,1-0.9,1.8-0.9c0.7,0,1.3,0.3,1.7,0.8c0.4,0.5,0.6,1.3,0.6,2.3c0,1-0.2,1.7-0.6,2.3S245.9,69.8,245.1,69.8z M244.8,64.6
		c-0.5,0-0.9,0.1-1.1,0.4c-0.2,0.3-0.3,0.8-0.3,1.4v0.2c0,0.7,0.1,1.2,0.3,1.6c0.2,0.3,0.6,0.5,1.1,0.5c0.4,0,0.8-0.2,1-0.5
		s0.4-0.9,0.4-1.5c0-0.7-0.1-1.2-0.4-1.5C245.6,64.8,245.3,64.6,244.8,64.6z"/>
	<path class="st3" d="M250.7,69.7h-1.3v-8.4h1.3V69.7z"/>
	<path class="st3" d="M256.6,69.7l-0.3-0.8h0c-0.3,0.4-0.6,0.6-0.9,0.7s-0.7,0.2-1.1,0.2c-0.6,0-1-0.2-1.4-0.5
		c-0.3-0.3-0.5-0.8-0.5-1.3c0-0.6,0.2-1.1,0.7-1.4c0.5-0.3,1.1-0.5,2.1-0.5l1,0v-0.3c0-0.4-0.1-0.7-0.3-0.9
		c-0.2-0.2-0.5-0.3-0.8-0.3c-0.3,0-0.6,0-0.9,0.1c-0.3,0.1-0.5,0.2-0.8,0.3l-0.4-0.9c0.3-0.2,0.7-0.3,1.1-0.4
		c0.4-0.1,0.7-0.1,1.1-0.1c0.8,0,1.3,0.2,1.7,0.5s0.6,0.8,0.6,1.6v4H256.6z M254.8,68.8c0.5,0,0.8-0.1,1.1-0.4
		c0.3-0.3,0.4-0.6,0.4-1.1v-0.5l-0.8,0c-0.6,0-1,0.1-1.3,0.3c-0.3,0.2-0.4,0.4-0.4,0.8c0,0.3,0.1,0.5,0.2,0.6
		C254.2,68.7,254.4,68.8,254.8,68.8z"/>
	<path class="st3" d="M262,68.7c0.3,0,0.6,0,0.9-0.1v1c-0.1,0.1-0.3,0.1-0.5,0.2c-0.2,0-0.4,0.1-0.7,0.1c-1.2,0-1.8-0.6-1.8-1.9
		v-3.2H259v-0.6l0.9-0.5l0.4-1.3h0.8v1.3h1.7v1h-1.7v3.2c0,0.3,0.1,0.5,0.2,0.7C261.5,68.7,261.7,68.7,262,68.7z"/>
	<path class="st3" d="M266.7,68.7c0.3,0,0.6,0,0.9-0.1v1c-0.1,0.1-0.3,0.1-0.5,0.2c-0.2,0-0.4,0.1-0.7,0.1c-1.2,0-1.8-0.6-1.8-1.9
		v-3.2h-0.8v-0.6l0.9-0.5l0.4-1.3h0.8v1.3h1.7v1h-1.7v3.2c0,0.3,0.1,0.5,0.2,0.7C266.3,68.7,266.5,68.7,266.7,68.7z"/>
	<path class="st3" d="M272.3,64.7h-1.5v5h-1.3v-5h-1v-0.6l1-0.4v-0.4c0-0.7,0.2-1.2,0.5-1.6c0.3-0.3,0.8-0.5,1.5-0.5
		c0.4,0,0.9,0.1,1.3,0.2l-0.3,1c-0.3-0.1-0.6-0.2-0.9-0.2c-0.3,0-0.5,0.1-0.6,0.3c-0.1,0.2-0.2,0.4-0.2,0.8v0.4h1.5V64.7z"/>
	<path class="st3" d="M279,66.7c0,1-0.2,1.7-0.7,2.3c-0.5,0.5-1.2,0.8-2.1,0.8c-0.6,0-1-0.1-1.5-0.4c-0.4-0.3-0.8-0.6-1-1.1
		c-0.2-0.5-0.3-1-0.3-1.6c0-1,0.2-1.7,0.7-2.3c0.5-0.5,1.2-0.8,2.1-0.8c0.9,0,1.5,0.3,2,0.8C278.7,65,279,65.7,279,66.7z
		 M274.6,66.7c0,1.4,0.5,2.1,1.5,2.1c1,0,1.5-0.7,1.5-2.1c0-1.4-0.5-2-1.5-2c-0.5,0-0.9,0.2-1.2,0.5C274.8,65.5,274.6,66,274.6,66.7
		z"/>
	<path class="st3" d="M283.9,63.6c0.3,0,0.5,0,0.6,0.1l-0.1,1.2c-0.2,0-0.4-0.1-0.6-0.1c-0.5,0-0.9,0.2-1.2,0.5
		c-0.3,0.3-0.5,0.8-0.5,1.3v3.1h-1.3v-5.9h1l0.2,1h0.1c0.2-0.4,0.5-0.6,0.8-0.8C283.2,63.7,283.5,63.6,283.9,63.6z"/>
	<path class="st3" d="M291,69.7h-1.3V66c0-0.5-0.1-0.8-0.3-1s-0.4-0.3-0.8-0.3c-0.5,0-0.8,0.2-1.1,0.5c-0.2,0.3-0.3,0.8-0.3,1.6v3
		H286v-5.9h1l0.2,0.8h0.1c0.2-0.3,0.4-0.5,0.7-0.7c0.3-0.2,0.7-0.2,1-0.2c0.9,0,1.5,0.3,1.8,0.9h0.1c0.2-0.3,0.4-0.5,0.7-0.7
		c0.3-0.2,0.7-0.2,1.1-0.2c0.7,0,1.2,0.2,1.5,0.5c0.3,0.4,0.5,0.9,0.5,1.6v3.9h-1.3V66c0-0.5-0.1-0.8-0.3-1s-0.4-0.3-0.8-0.3
		c-0.5,0-0.8,0.2-1.1,0.5c-0.2,0.3-0.3,0.8-0.3,1.4V69.7z"/>
</g>
<g>
	<defs>
		<circle id="SVGID_1_" cx="52.1" cy="47.8" r="44.1"/>
	</defs>
	<clipPath id="SVGID_2_">
		<use xlink:href="#SVGID_1_"  style="overflow:visible;"/>
	</clipPath>
	<g class="st4">
		<circle class="st5" cx="52.1" cy="47.8" r="44.1"/>
		
			<linearGradient id="SVGID_3_" gradientUnits="userSpaceOnUse" x1="49.5309" y1="-155.6" x2="25.4814" y2="-131.5515" gradientTransform="matrix(1 0 0 1 0 204.7244)">
			<stop  offset="0" style="stop-color:#000000"/>
			<stop  offset="1" style="stop-color:#000000;stop-opacity:0"/>
		</linearGradient>
		<path class="st6" d="M34.4,89.7L56,68.1c0.3-0.3,0.5-0.6,0.5-1.1c0.6-0.6,0.7-1.2,0.3-1.8c0.4-0.5,0.4-1,0-1.5
			c0.4-0.7,0.3-1.1,0-1.5c0.3-0.4,0.4-1,0.2-1.6l0.6-0.6c0.4-0.3,0.6-0.7,0.8-1.2c0.5-7.3,6.4-10.1,6.7-17.9
			c0-9.6-6.6-14.4-13.1-14.5c-2.9,0-5.8,1-8.1,2.8c-0.4,0.3-0.7,0.6-1.1,1L10,63.2C14.1,74.3,22.3,83,34.4,89.7L34.4,89.7z"/>
		<path class="st3" d="M52.1,28.1c3,0,5.8,1.2,7.9,3.2c2.4,2.3,3.6,5.6,3.6,9.6c-0.1,3.6-1.6,6-3.2,8.5c-1.6,2.6-3.2,5.2-3.5,9
			c-0.2,0.3-0.4,0.5-0.7,0.7l-1,0.6l0.2,1.1c0,0.1,0,0.2,0,0.4l-0.8,1l0.6,0.7l-0.5,0.8l0.5,0.6l-0.4,0.6l0.4,0.7l-0.5,0.5v0.5
			c-0.3,0.2-1.3,0.6-2.8,0.6c-1.5,0-2.5-0.4-2.8-0.6v-0.5l-0.5-0.5l0.4-0.7l-0.4-0.6l0.5-0.6l-0.5-0.8l0.6-0.7l-0.8-1
			c0-0.1,0-0.2,0-0.4l0.2-1.1l-1-0.6c-0.3-0.2-0.5-0.4-0.7-0.7c-0.3-3.8-2-6.5-3.5-9c-1.6-2.6-3-5-3.2-8.5c0-4,1.3-7.3,3.6-9.6
			C46.3,29.3,49.1,28.2,52.1,28.1 M52.1,26.5C45.5,26.5,39,31.4,39,41c0.3,7.8,6.2,10.6,6.7,17.9c0.2,0.7,0.7,1.3,1.4,1.7
			c-0.1,0.6-0.1,1.2,0.2,1.7c-0.3,0.3-0.4,0.8,0,1.5c-0.4,0.5-0.4,0.9,0,1.5c-0.3,0.6-0.3,1.2,0.3,1.8c0,1.4,2.2,2.1,4.4,2.1
			c2.2,0,4.4-0.7,4.4-2.1c0.6-0.6,0.7-1.2,0.3-1.8c0.4-0.5,0.4-1,0-1.5c0.4-0.7,0.3-1.1,0-1.5c0.3-0.5,0.4-1,0.2-1.7
			c0.7-0.4,1.2-1,1.4-1.7c0.5-7.3,6.4-10.1,6.7-17.9C65.2,31.4,58.7,26.5,52.1,26.5L52.1,26.5z"/>
	</g>
</g>
<g>
	<path class="st3" d="M52,62c-1.8,0-3.6-0.4-4.7-1.2l1-1.3c1.8,1.4,6.6,1,7.6,0l1.2,1.2C56.2,61.4,54.1,62,52,62z"/>
</g>
</svg>
