<svg xmlns="http://www.w3.org/2000/svg" xmlns:xlink="http://www.w3.org/1999/xlink" width="219" height="64" viewBox="0 0 219 64">
    <defs>
        <path id="prefix__a" d="M0 63.962L218.55 63.962 218.55 0 0 0z"/>
    </defs>
    <g fill="none" fill-rule="evenodd">
        <path fill="#4396B7" d="M80.823 24.415l.003.001v.001c2.276-2.931 5.831-4.823 9.822-4.823 3.922 0 7.423 1.828 9.704 4.674V18.59c-2.728-1.973-6.08-3.14-9.704-3.14-5.258 0-9.938 2.45-12.972 6.268-.027.03-.058.054-.083.085l-7.418 9.348C69.719 22.403 62.48 15.45 53.62 15.45c-5.266 0-9.953 2.458-12.988 6.285-.022.024-.046.043-.067.068l-7.43 9.363c-.448-8.755-7.689-15.716-16.556-15.716C7.423 15.45 0 22.872 0 32.028V61.89c0 1.145.928 2.073 2.072 2.073 1.145 0 2.072-.928 2.072-2.073v-18.9l.01.01-.01-.012V32.028c0-6.856 5.579-12.434 12.435-12.434 6.856 0 12.433 5.578 12.433 12.434 0 6.857-5.577 12.434-12.433 12.434-3.923 0-7.425-1.827-9.705-4.673v5.677c2.73 1.975 6.08 3.141 9.705 3.141 5.22 0 9.875-2.415 12.914-6.188l.016-.016 14.286-17.988.003.001v.001c2.276-2.931 5.831-4.823 9.822-4.823 6.855 0 12.433 5.578 12.433 12.434 0 2.778-.915 5.346-2.46 7.417l-.302.381c-.007.009-.011.02-.019.029-2.281 2.809-5.76 4.607-9.652 4.607-6.857 0-12.434-5.577-12.434-12.434 0-.302.014-.6.036-.898l-3.735 4.714c1.725 7.316 8.29 12.763 16.133 12.763 5.468 0 10.318-2.65 13.337-6.734l13.866-17.458zM128.066 30.185l-3.998-.379c-2.513-.26-4.124-1.45-4.861-2.93l-2.71 3.39c1.77 2.176 4.531 3.404 7.16 3.665l3.998.378c6.286.542 7.284 7.848 1.916 9.603-1.19.388-5.36 1.592-11.694-2.25-1.445-.877-3.273-.264-3.402 1.421-.053.672.22 1.332.74 1.76 2.539 2.086 5.784 3.508 9.308 3.78 5.753.486 12.704-1.943 12.881-9.315.003-5.532-4.04-8.779-9.338-9.123"/>
        <path fill="#4396B7" d="M119.75 21.997c.978-1.034 1.842-1.707 3.287-2.108 1.405-.39 2.393-.355 3.646-.258 2.596.199 4.945 1.186 6.833 2.707 1.31 1.057 3.26.245 3.39-1.433.052-.675-.225-1.337-.75-1.764-3.646-3.05-9.13-4.422-13.919-3.32-2.306.522-4.217 1.774-6.003 3.955l-9.008 11.35V2.167c0-1.144-.928-2.072-2.073-2.072-1.144 0-2.072.928-2.072 2.072V21.07l-.014-.017.014.019v10.957c0 6.857-5.578 12.434-12.433 12.434-6.857 0-12.435-5.577-12.435-12.434 0-.317.016-.63.04-.942l-3.746 4.723c1.712 7.333 8.285 12.798 16.14 12.798 5.461 0 10.304-2.641 13.325-6.715 1.954-2.479 14.88-18.946 15.778-19.895"/>
        <path fill="#9F1354" d="M160.18 2.312h2.242c.837 0 1.47.183 1.904.548.433.365.65.887.65 1.568 0 .68-.217 1.201-.65 1.566-.434.366-1.067.548-1.904.548h-2.243v-4.23zm0 5.903h2.33c.896 0 1.675-.15 2.34-.456.664-.304 1.173-.743 1.528-1.315.353-.574.531-1.245.531-2.016 0-.782-.178-1.456-.53-2.023-.356-.57-.865-1.006-1.529-1.31-.665-.304-1.444-.456-2.34-.456h-4.25v10.65h1.92V8.215zM170.517 5.386c.438-.466.996-.7 1.675-.7.68 0 1.24.234 1.683.7.443.467.664 1.08.664 1.84 0 .762-.22 1.376-.664 1.842-.444.467-1.004.7-1.683.7s-1.237-.233-1.675-.7c-.438-.466-.656-1.08-.656-1.841 0-.761.218-1.374.656-1.841m-.48 5.477c.64.356 1.358.533 2.155.533.807 0 1.53-.177 2.169-.533.64-.355 1.14-.849 1.498-1.483.36-.634.539-1.352.539-2.153 0-.8-.18-1.516-.539-2.145-.358-.63-.858-1.12-1.498-1.476-.64-.355-1.362-.533-2.169-.533-.797 0-1.516.178-2.154.533-.64.356-1.14.847-1.498 1.476-.36.629-.54 1.344-.54 2.145 0 .801.18 1.519.54 2.153.358.634.858 1.128 1.498 1.483M180.22 7.35c0-.813.203-1.434.606-1.865.402-.431.963-.647 1.682-.647.128 0 .27.016.429.045v-1.81c-1.34 0-2.273.426-2.805 1.278V3.165h-1.757v8.124h1.845V7.35zM193.543 5.386c.438-.466.997-.7 1.675-.7.68 0 1.24.234 1.682.7.443.467.665 1.08.665 1.84 0 .762-.222 1.376-.665 1.842-.442.467-1.002.7-1.682.7-.678 0-1.237-.233-1.675-.7-.439-.466-.657-1.08-.657-1.841 0-.761.218-1.374.657-1.841m-.59 5.493c.605.345 1.291.517 2.058.517.541 0 1.036-.096 1.483-.29.448-.192.825-.48 1.129-.866v1.05h1.757V3.163h-1.845v.99c-.315-.355-.686-.625-1.114-.806-.428-.184-.898-.275-1.41-.275-.767 0-1.453.173-2.058.518-.606.345-1.078.83-1.417 1.452-.34.624-.51 1.352-.51 2.184 0 .831.17 1.562.51 2.191.34.629.811 1.116 1.417 1.461M166.016 26.146c-.31.554-.753.979-1.329 1.278-.575.3-1.241.45-2 .45h-2.508V20.57h2.509c.758 0 1.424.15 2 .45.575.299 1.017.725 1.328 1.277.31.553.465 1.194.465 1.925 0 .73-.155 1.372-.465 1.924m2.398-1.924c0-1.055-.236-1.986-.708-2.792-.473-.806-1.137-1.43-1.993-1.871-.856-.441-1.835-.663-2.937-.663h-4.516v10.651h4.516c1.102 0 2.081-.221 2.937-.662.856-.441 1.52-1.065 1.993-1.872.472-.805.708-1.736.708-2.791M172.236 18.113c-.226-.207-.506-.311-.84-.311-.336 0-.616.109-.842.327-.226.218-.34.489-.34.813 0 .325.114.596.34.815.226.217.506.326.841.326.344 0 .627-.113.848-.341.222-.23.333-.51.333-.846 0-.314-.114-.575-.34-.783"/>
        <mask id="prefix__b" fill="#fff">
            <use xlink:href="#prefix__a"/>
        </mask>
        <path fill="#9F1354" d="M170.465 29.547L172.31 29.547 172.31 21.422 170.465 21.422zM180.42 26.923c-.449.43-1.022.646-1.72.646-.709 0-1.286-.215-1.734-.646-.449-.43-.672-.992-.672-1.682 0-.679.223-1.232.672-1.659.448-.425 1.025-.639 1.734-.639.698 0 1.271.214 1.72.639.447.427.671.98.671 1.659 0 .69-.224 1.251-.672 1.682m.037 3.46c-.403.406-1.039.609-1.904.609-.542 0-1.075-.088-1.6-.266-.527-.177-.963-.412-1.307-.707l-.827 1.43c.443.375 1.005.662 1.683.86.679.197 1.397.296 2.154.296 2.835 0 4.25-1.43 4.25-4.29v-6.892h-1.755v1.08c-.316-.396-.706-.69-1.174-.883-.467-.192-.986-.288-1.556-.288-.749 0-1.425.161-2.03.487-.605.324-1.083.783-1.431 1.376-.35.594-.524 1.275-.524 2.046 0 .772.174 1.456.524 2.054.348.6.826 1.062 1.431 1.392.605.33 1.281.495 2.03.495.54 0 1.037-.092 1.49-.274.452-.183.837-.451 1.151-.806v.425c0 .833-.2 1.45-.605 1.857M185.651 29.548L187.495 29.548 187.495 21.423 185.651 21.423zM186.58 20.083c.345 0 .628-.114.85-.342.22-.228.331-.51.331-.845 0-.313-.113-.575-.34-.783-.227-.207-.506-.311-.84-.311-.335 0-.616.108-.842.327-.227.218-.339.49-.339.813 0 .325.112.596.34.814.225.218.506.327.84.327M198.286 25.484c0-.76.219-1.373.657-1.84.438-.466.996-.7 1.675-.7.68 0 1.24.234 1.683.7.443.467.664 1.08.664 1.84 0 .762-.221 1.375-.664 1.842-.443.466-1.004.7-1.683.7s-1.237-.234-1.675-.7c-.438-.467-.657-1.08-.657-1.842m3.609 3.88c.448-.192.823-.481 1.13-.866v1.05h1.755v-8.126h-1.845v.99c-.315-.355-.686-.624-1.114-.806-.428-.184-.898-.275-1.41-.275-.767 0-1.453.172-2.058.517-.605.345-1.078.83-1.417 1.453-.34.624-.509 1.352-.509 2.183 0 .832.17 1.563.509 2.192.34.628.812 1.115 1.417 1.46s1.29.517 2.058.517c.542 0 1.036-.096 1.484-.289M163.854 42.243c-.492-.197-1.122-.388-1.889-.571-.561-.142-1.004-.268-1.329-.38-.324-.111-.592-.264-.804-.456-.211-.192-.316-.441-.316-.747 0-.435.183-.785.552-1.048.37-.264.933-.396 1.69-.396.463 0 .94.07 1.432.212.49.143.964.35 1.416.625l.606-1.538c-.444-.304-.97-.537-1.579-.698-.611-.163-1.23-.244-1.86-.244-.905 0-1.67.141-2.295.426-.625.283-1.092.666-1.402 1.148-.31.482-.465 1.016-.465 1.606 0 .699.174 1.254.525 1.666.348.41.766.711 1.253.905.488.192 1.124.386 1.911.578.561.142 1.004.269 1.329.38.324.112.593.266.805.464.21.198.316.45.316.752 0 .417-.188.752-.568 1.006-.378.253-.951.38-1.719.38-.62 0-1.238-.11-1.852-.327-.615-.218-1.134-.5-1.558-.844l-.663 1.536c.433.386 1.02.695 1.764.928.742.233 1.512.35 2.31.35.904 0 1.672-.142 2.302-.426.629-.285 1.099-.664 1.409-1.141.31-.477.464-1.009.464-1.598 0-.69-.174-1.237-.523-1.643-.35-.405-.77-.707-1.262-.905M171.189 41.2c.404 0 .774.094 1.114.282.34.188.622.47.848.845l1.417-.852c-.295-.609-.735-1.075-1.32-1.4-.587-.325-1.268-.487-2.043-.487-.827 0-1.564.178-2.207.532-.645.356-1.15.847-1.514 1.476-.363.63-.545 1.345-.545 2.145 0 .802.182 1.52.545 2.153.365.635.87 1.13 1.521 1.483.65.357 1.382.534 2.2.534.766 0 1.442-.166 2.028-.495.585-.33 1.031-.8 1.335-1.408l-1.417-.852c-.226.375-.509.658-.848.844-.34.19-.71.283-1.114.283-.7 0-1.272-.231-1.72-.693-.447-.461-.671-1.077-.671-1.85 0-.77.227-1.386.679-1.847.452-.462 1.023-.693 1.712-.693M180.764 39.588c-.551 0-1.05.089-1.499.266-.447.178-.824.434-1.129.769v-4.109h-1.844v11.29h1.844v-4.108c0-.792.197-1.397.59-1.819.394-.42.93-.63 1.61-.63.6 0 1.062.18 1.386.54.325.36.488.895.488 1.604v4.413h1.844v-4.656c0-1.176-.3-2.064-.9-2.663-.6-.598-1.397-.897-2.39-.897M191.963 43.788c0 .79-.194 1.396-.582 1.818-.39.42-.913.63-1.573.63-.59 0-1.045-.18-1.364-.539-.319-.361-.48-.906-.48-1.636V39.68h-1.845v4.64c0 1.187.303 2.082.908 2.686.606.603 1.433.905 2.487.905.511 0 .988-.099 1.432-.297.44-.197.81-.479 1.106-.844v1.035h1.757V39.68h-1.846v4.109zM201.679 43.019c.149-1.18.888-1.913 2.168-1.913 1.247 0 2.02.733 2.102 1.913h-4.27zm2.185-3.426c-2.365 0-4.057 1.752-4.057 4.095 0 2.406 1.742 4.222 4.204 4.222 2.052 0 3.039-1.083 3.629-1.976l-1.495-.828c-.36.685-1 1.29-2.168 1.29-1.312 0-2.216-.844-2.298-2.071h6.125v-.764c0-2.328-1.576-3.968-3.94-3.968zM206.959 29.547L208.802 29.547 208.802 18.257 206.959 18.257zM212.425 24.762c.147-1.18.886-1.912 2.167-1.912 1.248 0 2.02.732 2.101 1.912h-4.268zm6.125.542c0-2.328-1.577-3.968-3.94-3.968-2.366 0-4.058 1.752-4.058 4.095 0 2.406 1.741 4.222 4.203 4.222 2.054 0 3.04-1.083 3.63-1.976l-1.495-.828c-.36.685-1 1.29-2.167 1.29-1.314 0-2.216-.843-2.298-2.07h6.125v-.765zM193.638 28.086c-.345 0-.613-.104-.805-.312-.192-.207-.287-.51-.287-.906V22.95h2.11v-1.527h-2.11v-2.434H190.7v2.434h-1.318v1.527h1.318v3.966c0 .892.237 1.572.71 2.038.472.468 1.14.7 2.007.7.343 0 .67-.044.98-.137.311-.09.574-.228.79-.41l-.516-1.354c-.276.223-.62.334-1.033.334M185.79 8.657c0 .893.238 1.573.709 2.039.473.467 1.142.7 2.008.7.344 0 .671-.046.981-.137.31-.091.573-.229.79-.41l-.517-1.355c-.275.223-.62.335-1.033.335-.345 0-.613-.105-.804-.312-.192-.207-.288-.51-.288-.906V4.69h2.111V3.164h-2.11V.73h-1.846v2.434h-1.319v1.527h1.319v3.966zM201.972 11.29L203.814 11.29 203.814 0 201.972 0zM196.214 47.794L198.057 47.794 198.057 36.504 196.214 36.504z" mask="url(#prefix__b)"/>
    </g>
</svg>
