<svg height='200' width='200'  fill="#808080" xmlns="http://www.w3.org/2000/svg" data-name="Layer 1" viewBox="0 0 100 100" x="0px" y="0px"><title>Artboard 10</title><path d="M24.55,52.16h50.4a2.5,2.5,0,0,1,0,5H24.55a2.5,2.5,0,0,1,0-5ZM69,41.35H30.5a2.5,2.5,0,0,0,0,5H69a2.5,2.5,0,0,0,0-5Zm5.84-29a2.5,2.5,0,0,0-1.49-1.21L41.07,1.56A2.5,2.5,0,0,0,38,3.25l-6.52,22a2.5,2.5,0,0,0,4.79,1.42L42,7.07l27.49,8.16L63.73,34.79a2.5,2.5,0,1,0,4.79,1.42l6.52-22A2.5,2.5,0,0,0,74.84,12.36ZM3.5,70.09a13.51,13.51,0,0,1,1.58-9.16L21.88,31.8a2.5,2.5,0,1,1,4.33,2.5L9.42,63.42l0,0H35a2.5,2.5,0,0,1,2.17,1.25l5.15,8.93H57.17l5.15-8.93a2.5,2.5,0,0,1,2.17-1.25H90.6l0,0L73.79,34.3a2.5,2.5,0,1,1,4.33-2.5L94.91,60.93a13.52,13.52,0,0,1,1.58,9.16L92.61,91.38A8.73,8.73,0,0,1,84,98.54H16a8.73,8.73,0,0,1-8.59-7.16Zm30.06-1.63H8.32q0,.37.1.73l3.88,21.29A3.73,3.73,0,0,0,16,93.54H84a3.73,3.73,0,0,0,3.67-3.06l3.88-21.29q.07-.37.1-.73H65.93l-5.15,8.93a2.5,2.5,0,0,1-2.17,1.25H40.88a2.5,2.5,0,0,1-2.17-1.25Z"></path></svg>