<svg height='200' width='200'  fill="#808080" xmlns="http://www.w3.org/2000/svg" xmlns:xlink="http://www.w3.org/1999/xlink" version="1.1" x="0px" y="0px" viewBox="0 0 100 100" enable-background="new 0 0 100 100" xml:space="preserve"><path d="M83,21.33v0.006L68.664,7h0.006l-2-2h-1.639H15v70v20h70V75V24.969V23.33L83,21.33z M67.031,8.195l14.773,14.773H67.031  V8.195z M43.267,89.929c0.901,0,1.819-0.187,2.414-0.476l0.306,1.173c-0.544,0.272-1.632,0.544-3.025,0.544  c-3.23,0-5.661-2.04-5.661-5.796c0-3.587,2.431-6.018,5.983-6.018c1.428,0,2.329,0.306,2.72,0.51l-0.357,1.207  c-0.561-0.272-1.36-0.477-2.312-0.477c-2.686,0-4.471,1.717-4.471,4.726C38.865,88.127,40.479,89.929,43.267,89.929z M50.187,91.17  c-1.105,0-2.312-0.323-2.924-0.73l0.374-1.241c0.663,0.408,1.632,0.748,2.652,0.748c1.512,0,2.397-0.799,2.397-1.955  c0-1.071-0.612-1.683-2.159-2.277c-1.87-0.663-3.025-1.632-3.025-3.247c0-1.785,1.479-3.11,3.706-3.11  c1.172,0,2.021,0.271,2.532,0.561l-0.408,1.207c-0.374-0.204-1.139-0.544-2.176-0.544c-1.564,0-2.159,0.935-2.159,1.717  c0,1.071,0.697,1.598,2.278,2.21c1.938,0.748,2.924,1.683,2.924,3.365C54.198,89.641,52.889,91.17,50.187,91.17z M58.567,91.17  c-1.104,0-2.312-0.323-2.924-0.73l0.374-1.241c0.663,0.408,1.632,0.748,2.652,0.748c1.512,0,2.396-0.799,2.396-1.955  c0-1.071-0.612-1.683-2.159-2.277c-1.87-0.663-3.025-1.632-3.025-3.247c0-1.785,1.479-3.11,3.706-3.11  c1.172,0,2.021,0.271,2.532,0.561l-0.408,1.207c-0.374-0.204-1.139-0.544-2.176-0.544c-1.563,0-2.159,0.935-2.159,1.717  c0,1.071,0.697,1.598,2.278,2.21c1.938,0.748,2.924,1.683,2.924,3.365C62.579,89.641,61.27,91.17,58.567,91.17z M83,75H17V7h48.031  v17.969H83V75z"></path><path d="M36.525,48.861c2.415-0.07,2.66-1.33,2.66-2.38c0-0.875-0.105-1.785-0.21-2.73c-0.105-0.945-0.175-1.891-0.175-2.766  c0-3.29,2.065-4.726,5.321-4.726h1.225v2.976h-0.63c-1.575,0-2.135,0.945-2.135,2.485c0,0.63,0.105,1.26,0.175,1.995  c0.07,0.7,0.175,1.505,0.175,2.38c0.035,2.66-1.05,3.64-2.975,4.06v0.07c1.925,0.42,3.01,1.436,2.975,4.096  c0,0.91-0.105,1.715-0.175,2.449c-0.07,0.701-0.175,1.365-0.175,1.961c0,1.54,0.525,2.521,2.135,2.521h0.63v2.939h-1.26  c-3.115,0-5.286-1.26-5.286-4.76c0-0.876,0.07-1.82,0.175-2.766c0.105-0.944,0.21-1.854,0.21-2.729c0-0.98-0.245-2.311-2.66-2.381  V48.861z"></path><path d="M63.477,51.557c-2.381,0.07-2.66,1.4-2.66,2.381c0,0.875,0.104,1.785,0.21,2.729c0.104,0.945,0.21,1.89,0.21,2.766  c0,3.5-2.171,4.76-5.321,4.76h-1.26v-2.939h0.63c1.61-0.035,2.136-0.98,2.136-2.521c0-0.596-0.07-1.26-0.176-1.961  c-0.069-0.734-0.175-1.539-0.175-2.449c-0.035-2.66,1.051-3.676,3.011-4.096v-0.07c-1.96-0.42-3.046-1.4-3.011-4.06  c0-0.875,0.105-1.68,0.175-2.38c0.105-0.735,0.176-1.365,0.176-1.995c0-1.541-0.561-2.45-2.136-2.485h-0.63V36.26h1.226  c3.29,0,5.355,1.436,5.355,4.726c0,0.875-0.105,1.82-0.21,2.766c-0.105,0.945-0.21,1.855-0.21,2.73c0,1.05,0.279,2.31,2.66,2.38  V51.557z"></path></svg>