<svg height='200' width='200'  fill="#808080" xmlns="http://www.w3.org/2000/svg" xmlns:xlink="http://www.w3.org/1999/xlink" version="1.1" x="0px" y="0px" viewBox="0 0 70 70" style="enable-background:new 0 0 70 70;" xml:space="preserve"><style type="text/css">
	.st0{fill:none;stroke:#808080;stroke-width:2;stroke-linecap:round;stroke-linejoin:round;stroke-miterlimit:10;}
</style><g><g><g><g><path d="M17.3095703,58.4765625c-0.1289063,0-0.2587891-0.0249023-0.3823242-0.0761719      c-0.3740234-0.1547852-0.6176758-0.519043-0.6176758-0.9238281v-8.9204102h-3.3588867      C11.3237305,48.5561523,10,47.2324219,10,45.6054688V14.4741211c0-1.6269531,1.3237305-2.9506836,2.9506836-2.9506836      h44.0986328C58.6762695,11.5234375,60,12.847168,60,14.4741211v31.1313477c0,1.6269531-1.3237305,2.9506836-2.9506836,2.9506836      H27.6333008l-9.6162109,9.6269531C17.8256836,58.375,17.5698242,58.4765625,17.3095703,58.4765625z M12.9506836,13.5234375      C12.4262695,13.5234375,12,13.949707,12,14.4741211v31.1313477c0,0.5244141,0.4262695,0.9506836,0.9506836,0.9506836h4.3588867      c0.5522461,0,1,0.4477539,1,1v7.5043945l8.2016602-8.2109375c0.1875-0.1879883,0.4418945-0.293457,0.7075195-0.293457      h29.8305664C57.5737305,46.5561523,58,46.1298828,58,45.6054688V14.4741211      c0-0.5244141-0.4262695-0.9506836-0.9506836-0.9506836H12.9506836z"></path></g></g></g><g><g><g><path d="M24.2836914,41.7563477c-0.2607422,0-0.5166016-0.1020508-0.7070313-0.2929688      c-0.2700195-0.2695313-0.362793-0.6694336-0.2392578-1.0307617l2.15625-6.3022461      c0.1118164-0.3266602,0.3842773-0.5722656,0.7202148-0.6503906c0.3369141-0.0791016,0.6894531,0.0224609,0.9331055,0.2670898      l4.1459961,4.1455078c0.2441406,0.2441406,0.3452148,0.5966797,0.2670898,0.9331055      c-0.078125,0.3359375-0.3237305,0.6083984-0.6503906,0.7202148l-6.3022461,2.1567383      C24.5014648,41.7387695,24.3920898,41.7563477,24.2836914,41.7563477z M26.8671875,36.2954102l-0.9770508,2.8540039      l2.8544922-0.9765625L26.8671875,36.2954102z"></path></g></g><g><g><g><path d="M30.5859375,39.5996094c-0.2558594,0-0.5117188-0.0976563-0.7070313-0.2929688l-4.1459961-4.1455078       c-0.1875-0.1875-0.2929688-0.4418945-0.2929688-0.7070313s0.1054688-0.5195313,0.2929688-0.7070313l11.9755859-11.9755859       c0.390625-0.390625,1.0234375-0.390625,1.4140625,0l4.1455078,4.1455078c0.390625,0.390625,0.390625,1.0234375,0,1.4140625       L31.2929688,39.3066406C31.0976563,39.5019531,30.8417969,39.5996094,30.5859375,39.5996094z M27.8540039,34.4541016       l2.7319336,2.7314453l10.5610352-10.5615234l-2.7314453-2.7314453L27.8540039,34.4541016z"></path></g></g><g><g><path d="M42.5610352,27.6240234c-0.2558594,0-0.5117188-0.0976563-0.7070313-0.2929688l-4.1455078-4.1455078       c-0.390625-0.390625-0.390625-1.0234375,0-1.4140625l2.8364258-2.8364258       c0.8134766-0.8134766,2.1386719-0.8149414,2.953125-0.0004883l2.605957,2.6064453       c0.3950195,0.3945313,0.6123047,0.9189453,0.6123047,1.4770508s-0.2172852,1.0825195-0.6118164,1.4770508l-2.8364258,2.8359375       C43.0727539,27.5263672,42.8168945,27.6240234,42.5610352,27.6240234z M39.8295898,22.4785156l2.7314453,2.7314453       l2.1293945-2.1289063c0.0292969-0.0292969,0.0297852-0.0957031,0.0004883-0.125       c-0.0004883,0-0.0004883-0.0004883-0.0004883-0.0004883l-2.605957-2.6064453       c-0.034668-0.034668-0.0913086-0.0341797-0.1259766,0.0004883L39.8295898,22.4785156z"></path></g></g></g></g></g></svg>