<svg height='200' width='200'  fill="#808080" xmlns="http://www.w3.org/2000/svg" xmlns:xlink="http://www.w3.org/1999/xlink" viewBox="0 0 24 24" version="1.1" x="0px" y="0px"><title>SEO_031-users-community-hierachy-audience</title><desc>Created with Sketch.</desc><g stroke="none" stroke-width="1" fill="none" fill-rule="evenodd"><g transform="translate(-24.000000, -216.000000)" fill-rule="nonzero" fill="#808080"><g transform="translate(24.000000, 216.000000)"><polygon points="9 19 15 19 15 18 9 18"></polygon><polygon points="7.49087896 14.731362 11.0537693 9.13253429 10.2101078 8.5956588 6.64721747 14.1944865"></polygon><polygon transform="translate(15.134758, 11.640334) scale(-1, 1) translate(-15.134758, -11.640334) " points="13.7833824 14.6952387 17.329795 9.12230464 16.4861335 8.58542915 12.9397209 14.1583633"></polygon><path d="M12,9 C14.209139,9 16,7.209139 16,5 C16,2.790861 14.209139,1 12,1 C9.790861,1 8,2.790861 8,5 C8,7.209139 9.790861,9 12,9 Z M12,10 C9.23857625,10 7,7.76142375 7,5 C7,2.23857625 9.23857625,0 12,0 C14.7614237,0 17,2.23857625 17,5 C17,7.76142375 14.7614237,10 12,10 Z"></path><path d="M12,9 C13.0192819,9 13.9743827,8.61728984 14.7019141,7.94986096 C14.3450903,7.37362607 13.7075541,7 12.9983345,7 L11.0016655,7 C10.2890523,7 9.65244611,7.37239172 9.29676076,7.94864528 C10.0244516,8.61681993 10.9800946,9 12,9 Z M11.0016655,6 L12.9983345,6 C14.3621545,6 15.5135371,6.91132915 15.8789791,8.1551708 C14.9621626,9.28094127 13.5650539,10 12,10 C10.4346392,10 9.03728943,9.2806592 8.12048152,8.1545084 C8.48470246,6.90931583 9.63363609,6 11.0016655,6 Z"></path><path d="M12,4.5 C12.5522847,4.5 13,4.05228475 13,3.5 C13,2.94771525 12.5522847,2.5 12,2.5 C11.4477153,2.5 11,2.94771525 11,3.5 C11,4.05228475 11.4477153,4.5 12,4.5 Z M12,5.5 C10.8954305,5.5 10,4.6045695 10,3.5 C10,2.3954305 10.8954305,1.5 12,1.5 C13.1045695,1.5 14,2.3954305 14,3.5 C14,4.6045695 13.1045695,5.5 12,5.5 Z"></path><path d="M5,22 C7.209139,22 9,20.209139 9,18 C9,15.790861 7.209139,14 5,14 C2.790861,14 1,15.790861 1,18 C1,20.209139 2.790861,22 5,22 Z M5,23 C2.23857625,23 0,20.7614237 0,18 C0,15.2385763 2.23857625,13 5,13 C7.76142375,13 10,15.2385763 10,18 C10,20.7614237 7.76142375,23 5,23 Z"></path><path d="M5,22 C6.01928191,22 6.97438274,21.6172898 7.70191406,20.949861 C7.34509031,20.3736261 6.7075541,20 5.99833453,20 L4.00166547,20 C3.2890523,20 2.65244611,20.3723917 2.29676076,20.9486453 C3.02445158,21.6168199 3.98009458,22 5,22 Z M4.00166547,19 L5.99833453,19 C7.36215446,19 8.51353713,19.9113292 8.87897913,21.1551708 C7.96216259,22.2809413 6.56505388,23 5,23 C3.43463919,23 2.03728943,22.2806592 1.12048152,21.1545084 C1.48470246,19.9093158 2.63363609,19 4.00166547,19 Z"></path><path d="M5,17.5 C5.55228475,17.5 6,17.0522847 6,16.5 C6,15.9477153 5.55228475,15.5 5,15.5 C4.44771525,15.5 4,15.9477153 4,16.5 C4,17.0522847 4.44771525,17.5 5,17.5 Z M5,18.5 C3.8954305,18.5 3,17.6045695 3,16.5 C3,15.3954305 3.8954305,14.5 5,14.5 C6.1045695,14.5 7,15.3954305 7,16.5 C7,17.6045695 6.1045695,18.5 5,18.5 Z"></path><path d="M19,22 C21.209139,22 23,20.209139 23,18 C23,15.790861 21.209139,14 19,14 C16.790861,14 15,15.790861 15,18 C15,20.209139 16.790861,22 19,22 Z M19,23 C16.2385763,23 14,20.7614237 14,18 C14,15.2385763 16.2385763,13 19,13 C21.7614237,13 24,15.2385763 24,18 C24,20.7614237 21.7614237,23 19,23 Z"></path><path d="M19,22 C20.0192819,22 20.9743827,21.6172898 21.7019141,20.949861 C21.3450903,20.3736261 20.7075541,20 19.9983345,20 L18.0016655,20 C17.2890523,20 16.6524461,20.3723917 16.2967608,20.9486453 C17.0244516,21.6168199 17.9800946,22 19,22 Z M18.0016655,19 L19.9983345,19 C21.3621545,19 22.5135371,19.9113292 22.8789791,21.1551708 C21.9621626,22.2809413 20.5650539,23 19,23 C17.4346392,23 16.0372894,22.2806592 15.1204815,21.1545084 C15.4847025,19.9093158 16.6336361,19 18.0016655,19 Z"></path><path d="M19,17.5 C19.5522847,17.5 20,17.0522847 20,16.5 C20,15.9477153 19.5522847,15.5 19,15.5 C18.4477153,15.5 18,15.9477153 18,16.5 C18,17.0522847 18.4477153,17.5 19,17.5 Z M19,18.5 C17.8954305,18.5 17,17.6045695 17,16.5 C17,15.3954305 17.8954305,14.5 19,14.5 C20.1045695,14.5 21,15.3954305 21,16.5 C21,17.6045695 20.1045695,18.5 19,18.5 Z"></path></g></g></g></svg>