<svg height='200' width='200'  fill="#808080" xmlns:dc="http://purl.org/dc/elements/1.1/" xmlns:cc="http://creativecommons.org/ns#" xmlns:rdf="http://www.w3.org/1999/02/22-rdf-syntax-ns#" xmlns:svg="http://www.w3.org/2000/svg" xmlns="http://www.w3.org/2000/svg" xmlns:sodipodi="http://sodipodi.sourceforge.net/DTD/sodipodi-0.dtd" xmlns:inkscape="http://www.inkscape.org/namespaces/inkscape" version="1.1" x="0px" y="0px" viewBox="0 0 100 100"><g transform="translate(0,-952.36218)"><path style="font-size:medium;font-style:normal;font-variant:normal;font-weight:normal;font-stretch:normal;text-indent:0;text-align:start;text-decoration:none;line-height:normal;letter-spacing:normal;word-spacing:normal;text-transform:none;direction:ltr;block-progression:tb;writing-mode:lr-tb;text-anchor:start;baseline-shift:baseline;opacity:1;color:#000000;fill:#808080;fill-opacity:1;stroke:none;stroke-width:2;marker:none;visibility:visible;display:inline;overflow:visible;enable-background:accumulate;font-family:Sans;-inkscape-font-specification:Sans" d="M 22.8125 21 A 1.0001 1.0001 0 0 0 22 22 L 22 28 L 8 28 C 7.937684 27.9941 7.8748163 27.9941 7.8125 28 C 7.2889012 28.049087 6.8571627 28.570151 6.90625 29.09375 C 6.9553374 29.617349 7.4764012 30.049087 8 30 L 22 30 L 22 36 A 1.0001 1.0001 0 0 0 23 37 L 31 37 A 1.0001 1.0001 0 0 0 32 36 L 32 30 L 92 30 C 92.528313 30.0075 93 29.528365 93 29 C 93 28.471635 92.528313 27.992528 92 28 L 32 28 L 32 22 A 1.0001 1.0001 0 0 0 31 21 L 23 21 A 1.0001 1.0001 0 0 0 22.8125 21 z M 24 23 L 30 23 L 30 35 L 24 35 L 24 23 z M 70.8125 42 A 1.0001 1.0001 0 0 0 70 43 L 70 49 L 8 49 C 7.937684 48.9941 7.8748163 48.9941 7.8125 49 C 7.2889012 49.049087 6.8571627 49.570151 6.90625 50.09375 C 6.9553374 50.617349 7.4764012 51.049087 8 51 L 70 51 L 70 57 A 1.0001 1.0001 0 0 0 71 58 L 79 58 A 1.0001 1.0001 0 0 0 80 57 L 80 51 L 92 51 C 92.528313 51.0075 93 50.528365 93 50 C 93 49.471635 92.528313 48.992528 92 49 L 80 49 L 80 43 A 1.0001 1.0001 0 0 0 79 42 L 71 42 A 1.0001 1.0001 0 0 0 70.8125 42 z M 72 44 L 78 44 L 78 56 L 72 56 L 72 44 z M 43.8125 63 A 1.0001 1.0001 0 0 0 43 64 L 43 70 L 8 70 C 7.937684 69.9941 7.8748163 69.9941 7.8125 70 C 7.2889012 70.049087 6.8571627 70.570151 6.90625 71.09375 C 6.9553374 71.617349 7.4764012 72.049087 8 72 L 43 72 L 43 78 A 1.0001 1.0001 0 0 0 44 79 L 52 79 A 1.0001 1.0001 0 0 0 53 78 L 53 72 L 92 72 C 92.528313 72.0075 93 71.528365 93 71 C 93 70.471635 92.528313 69.992528 92 70 L 53 70 L 53 64 A 1.0001 1.0001 0 0 0 52 63 L 44 63 A 1.0001 1.0001 0 0 0 43.8125 63 z M 45 65 L 51 65 L 51 77 L 45 77 L 45 65 z " transform="translate(0,952.36218)"></path></g></svg>