<svg height='200' width='200'  fill="#808080" xmlns="http://www.w3.org/2000/svg" xmlns:xlink="http://www.w3.org/1999/xlink" viewBox="0 0 100 100" version="1.1" x="0px" y="0px"><title>Upload s15.4</title><desc>Created with Sketch.</desc><g stroke="none" stroke-width="1" fill="none" fill-rule="evenodd"><g fill="#808080"><path d="M38,44 C39.6568542,44 41,45.3431458 41,47 C41,48.6568542 39.6568542,50 38,50 L34.9983345,50 C33.8935766,50 33,50.8942485 33,52.0053221 L33,68.9946779 C33,70.1042355 33.8951867,71 35.0053221,71 L64.9946779,71 C66.1042355,71 67,70.1048133 67,68.9946779 L67,52.0053221 C67,50.8974253 66.1036723,50 65.0016655,50 L62,50 C60.3431458,50 59,48.6568542 59,47 C59,45.3431458 60.3431458,44 62,44 L65.0016655,44 C69.4190257,44 73,47.5853595 73,52.0053221 L73,68.9946779 C73,73.4193889 69.4170775,77 64.9946779,77 L35.0053221,77 C30.5806111,77 27,73.4170775 27,68.9946779 L27,52.0053221 C27,47.5815492 30.578858,44 34.9983345,44 L38,44 Z M52.0440897,23.8847054 L62.0700334,34.1205764 C64.8900113,36.9486345 60.6600445,41.1917216 57.8390694,38.3636635 L54.4069511,34.90862 C53.6256059,34.1220556 52.9919266,34.3838158 52.9919266,35.4936176 L52.9919266,62.9992691 C52.9919266,64.6647199 51.6525909,66 50.0004366,66 C48.3516441,66 47.0089466,64.656527 47.0089466,62.9992691 L47.0089466,35.4936176 C47.0089466,34.3877407 46.3752882,34.1219034 45.5936309,34.90862 L42.1608066,38.3636635 C39.3408287,41.1917216 35.1098647,36.9486345 37.9298426,34.1205764 L47.8530305,23.8988363 C49.0132064,22.703755 50.8854039,22.7017585 52.0440897,23.8847054 Z" transform="translate(50.000000, 50.000000) rotate(-270.000000) translate(-50.000000, -50.000000) "></path></g></g></svg>